<?xml version="1.0" encoding="UTF-8"?>
<svg width="60px" height="60px" viewBox="0 0 60 60" version="1.1" xmlns="http://www.w3.org/2000/svg" xmlns:xlink="http://www.w3.org/1999/xlink">
    <!-- Generator: Sketch 60.1 (88133) - https://sketch.com -->
    <title>Group 13</title>
    <desc>Created with Sketch.</desc>
    <g id="design" stroke="none" stroke-width="1" fill="none" fill-rule="evenodd">
        <g id="lp" transform="translate(-686.000000, -1905.000000)">
            <g id="Group-19" transform="translate(0.000000, 886.000000)">
                <g id="プラン" transform="translate(0.000000, 707.000000)">
                    <g id="Group" transform="translate(156.000000, 80.000000)">
                        <g id="Group-8" transform="translate(144.000000, 156.000000)">
                            <g id="Group-13" transform="translate(386.000000, 76.000000)">
                                <circle id="Oval" fill="#FFFFFF" cx="30" cy="30" r="30"></circle>
                                <path d="M39.9142136,20.5857864 C40.6541543,21.3257272 40.6930986,22.5012114 40.0310463,23.2869988 L39.9142136,23.4142136 L33.079,30.25 L39.4142136,36.5857864 C40.1952621,37.366835 40.1952621,38.633165 39.4142136,39.4142136 C38.6742728,40.1541543 37.4987886,40.1930986 36.7130012,39.5310463 L36.5857864,39.4142136 L30.25,33.079 L24.4142136,38.9142136 C23.633165,39.6952621 22.366835,39.6952621 21.5857864,38.9142136 C20.8458457,38.1742728 20.8069014,36.9987886 21.4689537,36.2130012 L21.5857864,36.0857864 L27.421,30.25 L21.0857864,23.9142136 C20.3047379,23.133165 20.3047379,21.866835 21.0857864,21.0857864 C21.8257272,20.3458457 23.0012114,20.3069014 23.7869988,20.9689537 L23.9142136,21.0857864 L30.25,27.421 L37.0857864,20.5857864 C37.866835,19.8047379 39.133165,19.8047379 39.9142136,20.5857864 Z" id="Combined-Shape" fill="#FF8D8D" fill-rule="nonzero"></path>
                            </g>
                        </g>
                    </g>
                </g>
            </g>
        </g>
    </g>
</svg>