<?xml version="1.0" encoding="UTF-8"?>
<svg width="77px" height="19px" viewBox="0 0 77 19" version="1.1" xmlns="http://www.w3.org/2000/svg" xmlns:xlink="http://www.w3.org/1999/xlink">
    <!-- Generator: Sketch 60.1 (88133) - https://sketch.com -->
    <title>logo</title>
    <desc>Created with Sketch.</desc>
    <g id="logo" stroke="none" stroke-width="1" fill="none" fill-rule="evenodd">
        <path d="M13.7216658,14.9051724 C14.1490072,14.9051724 14.4928835,14.7720905 14.7532947,14.5059267 C15.0137059,14.2397629 15.1439114,13.8814655 15.1439114,13.4310345 C15.1439114,13.0215517 15.0537691,12.6905532 14.8734844,12.4380388 C14.6931998,12.1855244 14.4561588,12.0592672 14.1623616,12.0592672 C14.0822351,12.0592672 13.9587067,12.076329 13.7917765,12.1104526 C13.6248462,12.1445761 13.5013179,12.1616379 13.4211914,12.1616379 C13.1006853,12.1616379 12.9404323,11.8818247 12.9404323,11.3221983 L12.9404323,11.3221983 L12.9404323,11.0765086 C12.9537867,10.8444684 12.9604639,10.6056034 12.9604639,10.3599138 C12.9604639,9.54094828 12.7601476,8.92331178 12.359515,8.50700431 C11.9588824,8.09069684 11.2778071,7.80064655 10.3162889,7.63685345 C11.1442629,7.44576149 11.7518889,7.21372126 12.1391671,6.94073276 C12.8335969,6.46300287 13.1808118,5.71228448 13.1808118,4.68857759 C13.1808118,3.56932471 12.8102267,2.68552443 12.0690564,2.03717672 C11.3278861,1.38882902 10.3229661,1.06465517 9.05429626,1.06465517 C8.6670181,1.06465517 8.07274644,1.09195402 7.27148129,1.14655172 C6.06958355,1.22844828 5.07467932,1.26939655 4.28676858,1.26939655 C3.83271833,1.26939655 3.40537691,1.24892241 3.00474433,1.20797414 L3.00474433,1.20797414 L1.58249868,1.06465517 C1.54243542,1.05100575 1.48234054,1.04418103 1.40221402,1.04418103 C0.988227025,1.04418103 0.651027939,1.1875 0.390616763,1.47413793 C0.130205588,1.76077586 0,2.12248563 0,2.55926724 C0,2.94145115 0.103496749,3.26221264 0.310490248,3.52155172 C0.517483746,3.7808908 0.774556317,3.91056034 1.08170796,3.91056034 C1.20189773,3.91056034 1.36548937,3.88667385 1.57248287,3.83890086 C1.77947637,3.79112787 1.93639079,3.76724138 2.04322615,3.76724138 C2.31031453,3.76724138 2.47724477,3.94468391 2.54401687,4.29956897 C2.57072571,4.42241379 2.58408013,4.70222701 2.58408013,5.13900862 L2.58408013,5.13900862 L2.58408013,10.8103448 C2.58408013,11.7385057 2.40379547,12.2025862 2.04322615,12.2025862 C1.94974521,12.2025862 1.79616939,12.1786997 1.58249868,12.1309267 C1.36882797,12.0831537 1.20189773,12.0592672 1.08170796,12.0592672 C0.774556317,12.0592672 0.517483746,12.1889368 0.310490248,12.4482759 C0.103496749,12.7076149 0,13.0283764 0,13.4105603 C0,14.4069684 0.487436303,14.9051724 1.46230891,14.9051724 C1.84958707,14.9051724 2.32366895,14.8710489 2.88455456,14.8028017 C3.44544017,14.7345546 3.93955368,14.700431 4.3668951,14.700431 C4.76752768,14.700431 5.24160956,14.7345546 5.78914075,14.8028017 C6.33667194,14.8710489 6.77069056,14.9051724 7.09119663,14.9051724 C8.02600597,14.9051724 8.49341065,14.4069684 8.49341065,13.4105603 C8.49341065,13.0283764 8.39659111,12.7076149 8.20295203,12.4482759 C8.00931295,12.1889368 7.77227201,12.0592672 7.4918292,12.0592672 C7.38499385,12.0592672 7.23475663,12.0831537 7.04111755,12.1309267 C6.84747847,12.1786997 6.70391847,12.2025862 6.61043753,12.2025862 C6.27657705,12.2025862 6.10964681,11.7385057 6.10964681,10.8103448 L6.10964681,10.8103448 L6.10964681,10.3394397 C6.10964681,9.97090517 6.14303286,9.7183908 6.20980496,9.58189655 C6.30328589,9.37715517 6.53698823,9.27478448 6.91091197,9.27478448 C7.8323669,9.27478448 8.47004041,9.41127874 8.82393253,9.68426724 C9.17782464,9.95725575 9.35477069,10.4486351 9.35477069,11.1584052 L9.35477069,11.1584052 L9.35477069,11.3017241 L9.31470743,12.4892241 C9.30135301,12.516523 9.2946758,12.564296 9.2946758,12.6325431 C9.2946758,13.3150144 9.44491302,13.8644037 9.74538745,14.2807112 C10.0458619,14.6970187 10.4431559,14.9051724 10.9372694,14.9051724 C11.0975224,14.9051724 11.3345633,14.8881106 11.6483922,14.8539871 C11.9622211,14.8198635 12.199262,14.8028017 12.359515,14.8028017 C12.5064136,14.8028017 12.7334388,14.8198635 13.0405904,14.8539871 C13.347742,14.8881106 13.5747672,14.9051724 13.7216658,14.9051724 Z M6.83078545,6.75646552 C6.55034265,6.75646552 6.36004217,6.70869253 6.25988403,6.61314655 C6.15972588,6.51760057 6.10964681,6.3128592 6.10964681,5.99892241 L6.10964681,5.99892241 L6.10964681,4.77047414 C6.10964681,4.3200431 6.25654542,4.02658046 6.55034265,3.89008621 C6.71059568,3.82183908 7.05781058,3.78771552 7.59198735,3.78771552 C8.82059392,3.78771552 9.43489721,4.25179598 9.43489721,5.1799569 C9.43489721,6.23096264 8.56685995,6.75646552 6.83078545,6.75646552 Z M20.7327359,15.1508621 C21.9479881,15.1508621 22.9796169,14.8744612 23.8276226,14.3216595 C24.6756282,13.7688578 25.099631,13.0966236 25.099631,12.3049569 C25.099631,11.9500718 24.9761026,11.6566092 24.7290459,11.424569 C24.4819891,11.1925287 24.1581444,11.0765086 23.7575119,11.0765086 C23.2767528,11.0765086 22.8360569,11.2948994 22.4354244,11.731681 L22.2755024,11.8951357 C21.743533,12.4140395 21.2226003,12.6734914 20.7127043,12.6734914 C20.1651731,12.6734914 19.7111228,12.4823994 19.3505535,12.1002155 C18.9899842,11.7180316 18.8096995,11.2403017 18.8096995,10.6670259 C18.8096995,10.4759339 18.839747,10.3565014 18.8998419,10.3087284 C18.9599367,10.2609555 19.110174,10.237069 19.3505535,10.237069 L19.3505535,10.237069 L24.238271,10.237069 C24.652258,10.237069 24.9293622,10.141523 25.0695836,9.95043103 C25.209805,9.75933908 25.2799157,9.37715517 25.2799157,8.80387931 C25.2799157,7.41163793 24.8559128,6.29920977 24.0079072,5.46659483 C23.1599016,4.63397989 22.0281146,4.21767241 20.6125461,4.21767241 C19.0901423,4.21767241 17.8581972,4.72611351 16.9167106,5.74299569 C15.975224,6.75987787 15.5044808,8.0941092 15.5044808,9.74568966 C15.5044808,11.3836207 15.9785626,12.6939655 16.9267264,13.6767241 C17.8748902,14.6594828 19.14356,15.1508621 20.7327359,15.1508621 Z M21.6341592,8.06681034 L19.3906168,8.06681034 C19.1502372,8.06681034 19.0100158,8.03951149 18.9699526,7.98491379 C18.9298893,7.93031609 18.9098577,7.86206897 18.9098577,7.78017241 C18.9098577,7.56178161 19.016693,7.31609195 19.2303637,7.04310345 C19.5642242,6.61997126 19.9982428,6.40840517 20.5324196,6.40840517 C20.9464066,6.40840517 21.3069759,6.54148707 21.6141276,6.80765086 C21.9212792,7.07381466 22.074855,7.38433908 22.074855,7.73922414 C22.074855,7.86206897 22.0514848,7.94737787 22.0047443,7.99515086 C21.9580039,8.04292385 21.8344755,8.06681034 21.6341592,8.06681034 L21.6341592,8.06681034 Z M27.6837111,10.8922414 C27.8439642,10.8922414 28.0910209,10.8854167 28.4248814,10.8717672 C28.7587419,10.8581178 29.0124758,10.8512931 29.1860833,10.8512931 C29.3596907,10.8512931 29.6134247,10.8581178 29.9472852,10.8717672 C30.2811457,10.8854167 30.5282024,10.8922414 30.6884555,10.8922414 C31.089088,10.8922414 31.3695308,10.783046 31.5297839,10.5646552 C31.6900369,10.3462644 31.7701634,9.96408046 31.7701634,9.41810345 C31.7701634,8.57183908 31.4095941,8.1487069 30.6884555,8.1487069 L30.6884555,8.1487069 L30.1075382,8.1487069 C29.7603233,8.16235632 29.4531717,8.16918103 29.1860833,8.16918103 C28.9323493,8.16918103 28.6251977,8.16235632 28.2646284,8.1487069 L28.2646284,8.1487069 L27.6636795,8.1487069 C26.9558953,8.1487069 26.6020032,8.59231322 26.6020032,9.47952586 C26.6020032,10.4213362 26.9625725,10.8922414 27.6837111,10.8922414 Z M41.2651555,14.8028017 C41.9595853,14.8028017 42.4870849,14.2431753 42.8476542,13.1239224 L42.8476542,13.1239224 L45.2915129,5.52801724 C45.6654367,4.35416667 46.0126516,3.76724138 46.3331576,3.76724138 C46.3865753,3.76724138 46.5000879,3.79112787 46.6736953,3.83890086 C46.8473028,3.88667385 46.980847,3.91056034 47.0743279,3.91056034 C47.3547707,3.91056034 47.5918116,3.77406609 47.7854507,3.50107759 C47.9790898,3.22808908 48.0759093,2.89367816 48.0759093,2.49784483 C48.0759093,2.07471264 47.9490423,1.73006466 47.6953084,1.46390086 C47.4415744,1.19773707 47.1077139,1.06465517 46.6937269,1.06465517 C46.4533474,1.06465517 46.0727464,1.10560345 45.5519241,1.1875 C45.2047092,1.2420977 44.817431,1.26939655 44.3900896,1.26939655 C44.1096468,1.26939655 43.6956598,1.23527299 43.1481286,1.16702586 C42.6005974,1.09877874 42.1866104,1.06465517 41.9061676,1.06465517 C41.0514848,1.06465517 40.6241434,1.5628592 40.6241434,2.55926724 C40.6241434,3.37823276 40.931295,3.78771552 41.5455983,3.78771552 L41.5455983,3.78771552 L41.5856616,3.78771552 L41.8661044,3.76724138 C42.0797751,3.75359195 42.1866104,3.86278736 42.1866104,4.09482759 C42.1866104,4.19037356 42.1532244,4.35416667 42.0864523,4.5862069 L42.0864523,4.5862069 L40.1834475,11.1788793 L38.3806009,4.5862069 C38.3271833,4.39511494 38.3004744,4.23814655 38.3004744,4.11530172 C38.3004744,3.88326149 38.4206642,3.76724138 38.6610438,3.76724138 C38.7411703,3.76724138 38.8012652,3.77406609 38.8413284,3.78771552 L38.8413284,3.78771552 L39.0416447,3.78771552 C39.5891759,3.78771552 39.8629415,3.38505747 39.8629415,2.57974138 C39.8629415,1.56968391 39.4222457,1.06465517 38.540854,1.06465517 C38.3405377,1.06465517 37.9866456,1.09877874 37.4791776,1.16702586 C36.9717097,1.23527299 36.5176595,1.26939655 36.1170269,1.26939655 C35.8365841,1.26939655 35.4225971,1.23527299 34.8750659,1.16702586 C34.3275347,1.09877874 33.9202249,1.06465517 33.6531365,1.06465517 C32.6782639,1.06465517 32.1908276,1.5628592 32.1908276,2.55926724 C32.1908276,2.95510057 32.28097,3.27927443 32.4612546,3.53178879 C32.6415393,3.78430316 32.8785802,3.91056034 33.1723774,3.91056034 C33.319276,3.91056034 33.4695133,3.88667385 33.6230891,3.83890086 C33.7766649,3.79112787 33.9001933,3.76724138 33.9936742,3.76724138 C34.2607626,3.76724138 34.5011422,4.1016523 34.7148129,4.77047414 L34.7148129,4.77047414 L37.0985767,12.4278017 C37.5926902,14.0111351 38.1936391,14.8028017 38.9014233,14.8028017 C39.0349675,14.8028017 39.2286066,14.7925647 39.4823405,14.7720905 C39.7360745,14.7516164 39.9297136,14.7413793 40.0632578,14.7413793 C40.196802,14.7413793 40.3971183,14.7516164 40.6642066,14.7720905 C40.931295,14.7925647 41.1316113,14.8028017 41.2651555,14.8028017 Z M52.2825514,15.1508621 C53.4978035,15.1508621 54.5294324,14.8744612 55.3774381,14.3216595 C56.2254437,13.7688578 56.6494465,13.0966236 56.6494465,12.3049569 C56.6494465,11.9500718 56.5259181,11.6566092 56.2788614,11.424569 C56.0318046,11.1925287 55.7079599,11.0765086 55.3073274,11.0765086 C54.8265683,11.0765086 54.3858724,11.2948994 53.9852399,11.731681 L53.8253179,11.8951357 C53.2933485,12.4140395 52.7724158,12.6734914 52.2625198,12.6734914 C51.7149886,12.6734914 51.2609383,12.4823994 50.900369,12.1002155 C50.5397997,11.7180316 50.359515,11.2403017 50.359515,10.6670259 C50.359515,10.4759339 50.3895625,10.3565014 50.4496574,10.3087284 C50.5097522,10.2609555 50.6599895,10.237069 50.900369,10.237069 L50.900369,10.237069 L55.7880865,10.237069 C56.2020734,10.237069 56.4791776,10.141523 56.6193991,9.95043103 C56.7596205,9.75933908 56.8297312,9.37715517 56.8297312,8.80387931 C56.8297312,7.41163793 56.4057283,6.29920977 55.5577227,5.46659483 C54.7097171,4.63397989 53.5779301,4.21767241 52.1623616,4.21767241 C50.6399578,4.21767241 49.4080127,4.72611351 48.4665261,5.74299569 C47.5250395,6.75987787 47.0542963,8.0941092 47.0542963,9.74568966 C47.0542963,11.3836207 47.5283781,12.6939655 48.4765419,13.6767241 C49.4247057,14.6594828 50.6933755,15.1508621 52.2825514,15.1508621 Z M53.1839747,8.06681034 L50.9404323,8.06681034 C50.7000527,8.06681034 50.5598313,8.03951149 50.5197681,7.98491379 C50.4797048,7.93031609 50.4596732,7.86206897 50.4596732,7.78017241 C50.4596732,7.56178161 50.5665085,7.31609195 50.7801792,7.04310345 C51.1140397,6.61997126 51.5480583,6.40840517 52.0822351,6.40840517 C52.4962221,6.40840517 52.8567914,6.54148707 53.1639431,6.80765086 C53.4710947,7.07381466 53.6246705,7.38433908 53.6246705,7.73922414 C53.6246705,7.86206897 53.6013003,7.94737787 53.5545598,7.99515086 C53.5078194,8.04292385 53.384291,8.06681034 53.1839747,8.06681034 L53.1839747,8.06681034 Z M63.0395361,19 C64.8290283,19 66.2445967,18.6485273 67.2862414,17.9455819 C68.3278861,17.2426365 68.8487085,16.2837644 68.8487085,15.0689655 C68.8487085,14.1135057 68.5014936,13.3764368 67.8070638,12.8577586 C67.112634,12.3390805 66.124407,12.0865661 64.8423827,12.1002155 L64.8423827,12.1002155 L63.5603585,12.1206897 L63.1198629,12.1200754 C62.484059,12.1163901 62.0700053,12.0961207 61.8777016,12.0592672 C61.2366895,11.9500718 60.9161834,11.6634339 60.9161834,11.1993534 C60.9161834,11.0082615 61.0163416,10.830819 61.2166579,10.6670259 L61.2166579,10.6670259 L61.316816,10.7079741 C62.0513091,11.0219109 62.7657705,11.1788793 63.4602003,11.1788793 C64.755579,11.1788793 65.8005623,10.8581178 66.5951502,10.2165948 C67.3897382,9.57507184 67.7870322,8.72880747 67.7870322,7.67780172 C67.7870322,6.28556034 67.14602,5.35739943 65.8639958,4.89331897 C65.8506414,4.85237069 65.8439642,4.78412356 65.8439642,4.68857759 C65.8439642,4.29274425 65.9841856,4.09482759 66.2646284,4.09482759 C66.3848181,4.09482759 66.4716219,4.14260057 66.5250395,4.23814655 L66.5250395,4.23814655 L66.7253558,4.56573276 C66.8989633,4.85237069 67.1727289,4.99568966 67.5466526,4.99568966 C67.8805131,4.99568966 68.1576173,4.87966954 68.3779652,4.64762931 C68.5983131,4.41558908 68.7084871,4.12895115 68.7084871,3.78771552 C68.7084871,3.28268678 68.498155,2.86637931 68.0774908,2.5387931 C67.6568266,2.2112069 67.1326656,2.04741379 66.5050079,2.04741379 C65.7304516,2.04741379 65.1228255,2.2419181 64.6821297,2.63092672 C64.2414338,3.01993534 64.0144087,3.5625 64.0010543,4.25862069 C63.4935864,4.23132184 63.2398524,4.21767241 63.2398524,4.21767241 C62.0513091,4.21767241 61.0530662,4.54184626 60.2451239,5.19019397 C59.4371815,5.83854167 59.0332103,6.6404454 59.0332103,7.59590517 C59.0332103,8.25107759 59.2735899,8.8516523 59.754349,9.39762931 C59.1534001,9.67061782 58.7360745,9.9606681 58.5023722,10.2677802 C58.2686698,10.5748922 58.1518187,10.9946121 58.1518187,11.5269397 C58.1518187,12.5506466 58.6859954,13.1716954 59.754349,13.3900862 C58.4055526,13.8132184 57.7311545,14.5707615 57.7311545,15.6627155 C57.7311545,16.672773 58.2152522,17.4815014 59.1834475,18.0889009 C60.1516429,18.6963003 61.4370058,19 63.0395361,19 Z M63.4001054,9.04956897 C63.0261817,9.04956897 62.7156914,8.91989943 62.4686347,8.66056034 C62.2215779,8.40122126 62.0980496,8.08045977 62.0980496,7.69827586 C62.0980496,7.31609195 62.2215779,6.99874282 62.4686347,6.74622845 C62.7156914,6.49371408 63.0261817,6.3674569 63.4001054,6.3674569 C63.7740292,6.3674569 64.0845194,6.49712644 64.3315762,6.75646552 C64.5786329,7.0158046 64.7021613,7.33656609 64.7021613,7.71875 C64.7021613,8.08728448 64.5786329,8.40122126 64.3315762,8.66056034 C64.0845194,8.91989943 63.7740292,9.04956897 63.4001054,9.04956897 Z M63.259884,16.4612069 C61.6840626,16.4612069 60.8961518,16.0994971 60.8961518,15.3760776 C60.8961518,14.9938937 61.1966263,14.6799569 61.7975751,14.4342672 C62.2783342,14.4888649 62.6789668,14.5161638 62.9994729,14.5161638 L62.9994729,14.5161638 L63.5403268,14.5161638 C63.8608329,14.5025144 64.0411176,14.4956897 64.0811808,14.4956897 C65.1228255,14.4956897 65.6436479,14.7891523 65.6436479,15.3760776 C65.6436479,16.0994971 64.8490599,16.4612069 63.259884,16.4612069 Z M72.4343701,3.7262931 C72.941838,3.7262931 73.372518,3.54543822 73.7264101,3.18372845 C74.0803022,2.82201868 74.2572483,2.38182471 74.2572483,1.86314655 C74.2572483,1.34446839 74.0803022,0.904274425 73.7264101,0.542564655 C73.372518,0.180854885 72.941838,0 72.4343701,0 C71.9269021,0 71.4962221,0.180854885 71.14233,0.542564655 C70.7884379,0.904274425 70.6114918,1.34446839 70.6114918,1.86314655 C70.6114918,2.36817529 70.7917765,2.8049569 71.1523458,3.17349138 C71.5129151,3.54202586 71.9402565,3.7262931 72.4343701,3.7262931 Z M74.8181339,14.8846983 C75.6060446,14.8846983 76,14.4137931 76,13.4719828 C76,12.7622126 75.7195572,12.4073276 75.1586716,12.4073276 C75.0651907,12.4073276 74.9483395,12.4243894 74.8081181,12.4585129 C74.6678967,12.4926365 74.5710771,12.5096983 74.5176595,12.5096983 C74.2639255,12.5096983 74.1370585,12.1616379 74.1370585,11.4655172 L74.1370585,11.4655172 L74.1370585,5.30280172 C74.1370585,4.77047414 73.9500966,4.50431034 73.5761729,4.50431034 C73.5361096,4.50431034 73.3357934,4.5316092 72.975224,4.5862069 C72.6146547,4.6408046 72.3208575,4.66810345 72.0938324,4.66810345 C71.8133896,4.66810345 71.4394658,4.63397989 70.9720611,4.56573276 C70.6916183,4.52478448 70.4779476,4.50431034 70.331049,4.50431034 C69.9571253,4.50431034 69.6566509,4.63056753 69.4296257,4.8830819 C69.2026006,5.13559626 69.089088,5.46659483 69.089088,5.87607759 C69.089088,6.6404454 69.4095941,7.02262931 70.0506062,7.02262931 C70.1307327,7.02262931 70.2375681,7.00897989 70.3711123,6.98168103 C70.5714286,6.91343391 70.6916183,6.87931034 70.7316816,6.87931034 C70.9587067,6.87931034 71.0722193,7.26831897 71.0722193,8.04633621 L71.0722193,8.04633621 L71.0722193,11.3631466 C71.0722193,12.1275144 70.9520295,12.5096983 70.71165,12.5096983 C70.6715867,12.5096983 70.6248462,12.5028736 70.5714286,12.4892241 C70.2242137,12.4073276 70.0506062,12.3663793 70.0506062,12.3663793 C69.4095941,12.3663793 69.089088,12.7553879 69.089088,13.5334052 C69.089088,13.9292385 69.2026006,14.2534124 69.4296257,14.5059267 C69.6566509,14.7584411 69.9504481,14.8846983 70.3110174,14.8846983 C70.5380425,14.8846983 70.8852574,14.8573994 71.3526621,14.8028017 C71.8200668,14.748204 72.1739589,14.7209052 72.4143384,14.7209052 C72.8950975,14.7209052 73.3224389,14.7413793 73.6963627,14.7823276 C74.310666,14.8505747 74.6845897,14.8846983 74.8181339,14.8846983 Z" id="Re-Vegi" fill="#222222" fill-rule="nonzero"></path>
    </g>
</svg>